<svg xmlns="http://www.w3.org/2000/svg" viewBox="0 0 31.85 44.02"><defs><style>.cls-1{fill:#f2b134;}.cls-2{fill:#fff;}</style></defs><title>cafe_b</title><g id="Warstwa_2" data-name="Warstwa 2"><g id="ikonki_w_kolkach" data-name="ikonki w kolkach"><path class="cls-1" d="M0,15.93a15.93,15.93,0,1,1,31.85,0C31.89,30.45,15.93,44,15.93,44S0,30.45,0,15.93Z"/><path class="cls-2" d="M19.05,25.8c.91,0,4-5.09,4.18-8.43V10.86H7.62v6.51c.2,3.34,3.26,8.43,4.18,8.43Z"/><path class="cls-2" d="M21.74,22.17c3.16-.2,5.08-2.24,5.23-4.64.19-3.07-1.5-4.17-3.74-4.37v-.68c3.17,0,4.5,1.87,4.5,5.05s-3.18,5.36-6.36,5.36Z"/></g></g></svg>