<svg xmlns="http://www.w3.org/2000/svg" viewBox="0 0 32 44.22"><defs><style>.cls-1{fill:#2e7d9e;}.cls-2{fill:#fff;}</style></defs><title>food_b</title><g id="Warstwa_2" data-name="Warstwa 2"><g id="ikonki_w_kolkach" data-name="ikonki w kolkach"><path class="cls-1" d="M0,16a16,16,0,0,1,32,0c0,14.6-16,28.22-16,28.22S0,30.6,0,16Z"/><path class="cls-2" d="M16.2,18.44c1.11,0,1.67-.05,1.67-.05,2.86-.26,3.38-2,3.38-2s.72,0,1.22,0a.43.43,0,0,1,.42.51L20.61,27.07l-.19.32H12l-.19-.32L9.5,16.9a.43.43,0,0,1,.43-.51c.49,0,1.22,0,1.22,0s.51,1.74,3.38,2C14.53,18.39,15.08,18.44,16.2,18.44Z"/><path class="cls-2" d="M10.41,15.8l-1.27-3s-.17-.49.28-.47S12,12.23,12,12.23l-.41-2.92s-.14-.4.41-.36,2.25.3,2.25.3a.41.41,0,0,1,.4.43,4.7,4.7,0,0,0,0,.49l1.73.35V7.23a.6.6,0,0,1,.47-.54l2.84-.38s.51-.12.49.49-.23,5.9-.23,5.9L20.3,11s0-.39.47-.35,2.21.08,2.21.08.4-.07.25.67-1.11,4.5-1.11,4.5l-.86,0,1.22-4.4-1.41,0-1.35,5.61-.94.38.39-10.13-1.86.26,0,10.27h-.9V11.42l-1.32-.36.22,6.79-.79-.12-.72-7.56-1.4-.44,1.05,7.72-.35,0-1.6-4.34L10.1,13l1.13,2.79Z"/></g></g></svg>