<svg xmlns="http://www.w3.org/2000/svg" viewBox="0 0 31.91 44.1"><defs><style>.cls-1{fill:#438a15;}.cls-2{fill:#fff;}</style></defs><title>green_b</title><g id="Warstwa_2" data-name="Warstwa 2"><g id="ikonki_w_kolkach" data-name="ikonki w kolkach"><path class="cls-1" d="M0,16a16,16,0,0,1,31.91,0c0,14.56-16,28.15-16,28.15S0,30.51,0,16Z"/><path class="cls-2" d="M19.45,27.88s2.67-1.61,3.34-6.36S20,12.87,20,12.87s-4.6-5.47-6.88-7a16.37,16.37,0,0,0-2.95,7.82,17.07,17.07,0,0,0,1.57,9.16s1.5,3.58,6.53,5.27c0,0,1-5.39-.28-9a67.76,67.76,0,0,0-3.38-7.71,33,33,0,0,1,4.13,7.71C19.84,22.69,19.45,27.88,19.45,27.88Z"/></g></g></svg>