<svg xmlns="http://www.w3.org/2000/svg" viewBox="0 0 31.88 44.06"><defs><style>.cls-1{fill:#db0b55;}.cls-2{fill:#fff;}</style></defs><title>museum_b</title><g id="Warstwa_2" data-name="Warstwa 2"><g id="ikonki_w_kolkach" data-name="ikonki w kolkach"><path class="cls-1" d="M0,15.94a15.94,15.94,0,0,1,31.88,0c0,14.54-15.94,28.12-15.94,28.12S0,30.48,0,15.94Z"/><rect class="cls-2" x="6.45" y="24.18" width="19.03" height="1.82" rx="0.91" ry="0.91"/><rect class="cls-2" x="7.78" y="22.56" width="16.42" height="1.27" rx="0.63" ry="0.63"/><rect class="cls-2" x="7.78" y="13.29" width="16.42" height="1.27" rx="0.63" ry="0.63"/><polygon class="cls-2" points="7.78 12.96 15.99 9.54 24.2 12.96 7.78 12.96"/><rect class="cls-2" x="17.02" y="14.89" width="1.8" height="7.36" rx="0.9" ry="0.9"/><rect class="cls-2" x="20.85" y="14.89" width="1.8" height="7.36" rx="0.9" ry="0.9"/><rect class="cls-2" x="9.17" y="14.89" width="1.8" height="7.36" rx="0.9" ry="0.9"/><rect class="cls-2" x="13" y="14.89" width="1.8" height="7.36" rx="0.9" ry="0.9"/></g></g></svg>